<?xml version="1.0" standalone="no"?>
<!DOCTYPE svg PUBLIC "-//W3C//DTD SVG 20010904//EN"
 "http://www.w3.org/TR/2001/REC-SVG-20010904/DTD/svg10.dtd">
<svg version="1.0" xmlns="http://www.w3.org/2000/svg"
 width="1132.000000pt" height="1280.000000pt" viewBox="0 0 1132.000000 1280.000000"
 preserveAspectRatio="xMidYMid meet">
<g transform="translate(0.000000,1280.000000) scale(0.100000,-0.100000)"
fill="#000000" stroke="none">
<path d="M8230 12784 c-385 -49 -685 -180 -921 -402 -193 -181 -299 -359 -393
-660 -77 -247 -117 -624 -98 -922 l8 -125 -32 -60 c-17 -33 -172 -303 -343
-600 -277 -478 -311 -542 -301 -561 9 -16 9 -26 -1 -42 -7 -12 -10 -25 -5 -29
4 -4 123 -10 264 -13 l257 -5 -85 -64 c-134 -101 -325 -299 -406 -421 -132
-199 -208 -387 -249 -615 -15 -80 -16 -245 -16 -1550 1 -803 4 -1543 7 -1645
5 -163 9 -191 29 -236 48 -108 175 -192 328 -216 49 -8 77 -17 77 -25 0 -17
-79 -199 -334 -773 -163 -365 -215 -491 -211 -511 3 -14 1 -38 -4 -52 -6 -15
-9 -28 -8 -29 1 -1 238 -4 527 -7 l525 -6 6 -1240 c6 -1117 8 -1246 23 -1299
64 -226 260 -381 538 -426 95 -15 291 -8 398 15 222 47 396 214 455 435 13 47
15 238 15 1281 0 1128 1 1228 17 1240 11 10 48 14 127 14 127 0 170 -15 218
-76 l29 -36 2 -1214 c2 -1202 3 -1215 23 -1271 53 -143 141 -240 286 -313 125
-63 211 -80 393 -80 121 1 167 5 240 23 216 54 350 165 425 352 56 138 54 77
51 1280 -2 613 0 1161 4 1217 l7 102 518 3 c285 2 522 6 526 10 4 5 2 20 -5
34 -9 20 -9 30 0 40 15 18 28 -14 -379 929 -16 39 -58 130 -92 203 -34 73 -60
141 -58 150 2 12 18 19 58 24 147 19 267 103 331 233 l30 62 5 1234 c6 1448
-5 2068 -37 2218 -82 375 -288 678 -645 947 -41 30 -74 57 -74 60 0 2 93 3
208 2 262 -3 324 12 293 71 -9 15 -8 25 0 39 12 19 -27 94 -233 440 -134 227
-318 552 -371 657 l-50 100 -2 290 c-1 164 -7 325 -14 370 -65 436 -205 762
-429 1005 -49 53 -74 90 -86 126 -59 179 -241 265 -641 303 -60 6 -156 15
-213 21 -137 13 -382 11 -512 -6z m1449 -3081 c1 -90 0 -93 -21 -93 -36 0
-218 44 -215 52 1 4 52 52 112 106 l110 99 7 -36 c4 -20 7 -78 7 -128z m-2326
95 c40 -35 90 -77 112 -95 27 -21 37 -35 30 -42 -6 -5 -47 -20 -93 -32 -66
-18 -87 -20 -107 -11 -25 11 -25 14 -25 127 0 63 2 115 5 115 3 0 38 -28 78
-62z"/>
<path d="M2502 12639 c-588 -79 -1108 -522 -1306 -1113 -59 -176 -70 -261 -71
-516 0 -206 3 -249 23 -348 69 -343 223 -625 468 -862 49 -48 102 -96 118
-108 16 -12 27 -25 24 -28 -3 -3 -84 -24 -179 -48 -425 -106 -746 -285 -1008
-562 -174 -184 -292 -395 -351 -625 -48 -186 -52 -359 -53 -1949 0 -1548 1
-1576 44 -1661 42 -84 167 -172 284 -200 28 -6 91 -12 140 -12 192 -1 354 85
424 225 17 34 31 69 31 80 0 10 5 18 10 18 7 0 10 -538 11 -1592 1 -876 4
-1831 8 -2123 7 -521 7 -531 30 -587 69 -175 203 -289 416 -354 82 -25 104
-28 260 -28 155 -1 178 2 267 26 134 38 191 69 274 152 51 51 81 92 107 146
74 154 70 60 63 1540 -3 729 -2 1545 3 1813 9 453 11 490 28 509 35 39 88 58
160 58 80 0 136 -22 176 -69 l27 -33 1 -1721 c0 -947 4 -1788 8 -1869 7 -142
9 -149 44 -221 78 -157 208 -256 412 -311 84 -23 273 -31 376 -17 94 14 245
61 299 94 132 80 216 201 266 385 14 51 16 262 14 1963 -1 1839 5 2529 21
2292 9 -124 29 -174 97 -242 87 -87 210 -134 352 -135 203 -1 371 88 438 232
l27 57 7 1040 c4 593 3 1315 -2 1680 -11 706 -13 727 -81 922 -155 440 -544
808 -1053 997 -88 34 -290 89 -405 112 -25 5 -46 14 -48 19 -1 6 14 21 34 35
66 44 246 232 311 325 216 306 319 721 283 1139 -37 426 -191 752 -490 1039
-224 213 -487 352 -797 418 -114 24 -418 34 -542 18z"/>
</g>
</svg>
